<svg width="240" height="62" viewBox="0 0 240 62" fill="none" xmlns="http://www.w3.org/2000/svg">
<g clip-path="url(#clip0_9_61)">
<path d="M167.442 17.6239H209.813L167.442 60.9315H191.93L222.286 30.5654V60.9315H240V17.6239L222.286 0.906616H167.442V17.6239Z" fill="#ABABAB"/>
<path d="M0 30.9539C0 8.85679 11.1781 0 39.1233 0C65.7534 0 76.9514 7.39228 78.0673 25.7933H56.7871C55.6712 19.1781 50.5106 16.5081 38.5554 16.5081C26.0025 16.5081 21.0212 20.6326 21.0212 30.9539C21.0212 41.2752 26.3512 45.3998 39.7609 45.3998C51.6264 45.3998 56.528 42.411 57.0461 34.7397H78.1569C77.6389 54.1669 66.5504 61.9078 39.1233 61.9078C11.1781 61.9078 0 53.0511 0 30.9539Z" fill="#4C4C4C"/>
<path d="M159.143 20.0349C159.143 33.3549 151.233 39.2927 136.359 39.2927H108.463V61.0411H88.538V0.856812H136.428C152.697 0.856812 159.143 7.13328 159.143 20.0349ZM138.172 20.1146C138.172 18.4807 137.046 16.5081 135.422 16.5081H108.423V23.6414H135.422C137.046 23.6414 138.172 21.8381 138.172 20.1146Z" fill="#4C4C4C"/>
</g>
<defs>
<clipPath id="clip0_9_61">
<rect width="240" height="61.9078" fill="white"/>
</clipPath>
</defs>
</svg>
