<svg width="256" height="256" viewBox="0 0 256 256" fill="none" xmlns="http://www.w3.org/2000/svg">
  <style>
    path {
      fill: #4D14D4;
    }
    @media (prefers-color-scheme: dark) {
      path {
        fill: #FFFFFF;
      }
    }
  </style>
  <path d="M83.2172 166.186C63.6609 185.391 44.0391 198.311 24.1772 217.2C25.3122 213.097 27.8113 203.069 28.979 199.271C30.5723 194.263 32.2857 189.287 33.8244 184.267C37.7968 171.729 48.7209 137.148 52.846 124.119L54.9195 128.757L33.0933 118.936L31.3581 118.15L30.9325 116.295C30.4305 114.494 12.773 38.3492 13.0022 39.6368L19.5828 42.0157L94.8834 67.1137L92.5043 67.0373L148.161 50.6691L149.602 50.2435L150.944 50.92L174.953 62.9234L171.799 62.8034L232.913 39.8878L237.518 38C238.478 45.4203 239.373 50.8218 240.399 58.2203C241.196 63.2181 241.599 70.6275 242.014 75.7453L242.156 77.5676L241.01 78.5497C225.972 91.6116 209.286 105.83 193.985 118.707C199.191 113.054 209.875 101.749 215.146 96.1511C222.207 88.6435 229.344 81.2123 236.459 73.7592L235.455 76.5637C233.164 65.1823 232.083 55.3504 230.577 43.8926L235.815 44.7656L174.702 69.8636L173.098 70.5183L171.548 69.7436L147.539 57.7402L150.322 57.9911L94.6651 74.3594L93.4647 74.7086L92.286 74.283L16.9746 47.0135L22.0055 42.5722L38.3752 114.593L36.2144 111.952L58.0407 121.773L61.14 123.17L60.1142 126.411C52.6932 149.413 42.1948 183.929 34.6648 206.582L28.6844 202.632C46.9638 188.37 72.3259 169.197 90.8564 155.262L83.2172 166.175V166.186Z" />
<path d="M112.683 212.017C114.211 210.685 111.144 213.523 112.683 212.017L231.636 96.3475L230.544 85.4353L236.001 81.0704L236.776 98.6718L118.986 209.264" />
<path d="M107.226 87.6177C108.317 86.5265 151.97 75.1888 151.97 75.1888L141.057 88.709L107.226 87.6177Z" />
<path d="M218.496 63.6982L196.266 60.9265L197.216 53.3425L217.481 55.8742L236.492 48.2793L239.329 55.3722L218.496 63.6982Z" />
<path d="M94.1304 212.017L150.933 158.547H137.783L95.2217 198.922L77.7607 169.459L70.1215 174.915L94.1304 212.017Z" />
<path d="M62.9407 84.7151L17.1711 49.6106L21.1544 44.4164L64.1957 77.4257L93.1264 68.1286L95.1235 74.3703L62.9407 84.7151Z" />
</svg>
