<svg width="782" height="512" viewBox="0 0 782 512" fill="none" xmlns="http://www.w3.org/2000/svg">
<path d="M562.173 0L508.361 105.378H605.681L659.492 0H562.173Z" fill="#4C00FF"/>
<path d="M782 0H682.391L627.434 105.378H729.333L782 0Z" fill="#4C00FF"/>
<path d="M484.13 105.378L537.942 0H186.448L108.593 105.378H484.13Z" fill="white"/>
<path d="M478.593 119.123H364.1L200.375 424.949L336.622 392.877L397.303 512H526.68L453.405 392.877C569.665 374.72 630.049 323.165 724.753 119.123H503.782L447.68 222.21H544.999C509.968 279.348 475.526 295.665 383.564 296.662L478.593 119.123Z" fill="white"/>
<path d="M45.1574 462.521L196.757 360.336L75.5655 356.034L0 462.557L45.1574 462.521Z" fill="white"/>
<path d="M343.491 119.123H229.55L45.1574 462.521L179.766 428.385L343.491 119.123Z" fill="white"/>
</svg>
